<?xml version="1.0" encoding="UTF-8" standalone="no"?>
<!-- Created with Inkscape (http://www.inkscape.org/) -->

<svg
   xmlns:dc="http://purl.org/dc/elements/1.1/"
   xmlns:cc="http://creativecommons.org/ns#"
   xmlns:rdf="http://www.w3.org/1999/02/22-rdf-syntax-ns#"
   xmlns:svg="http://www.w3.org/2000/svg"
   xmlns="http://www.w3.org/2000/svg"
   xmlns:sodipodi="http://sodipodi.sourceforge.net/DTD/sodipodi-0.dtd"
   xmlns:inkscape="http://www.inkscape.org/namespaces/inkscape"
   width="210mm"
   height="297mm"
   viewBox="0 0 744.09448819 1052.3622047"
   id="svg2"
   version="1.1"
   inkscape:version="0.91 r13725"
   sodipodi:docname="drawing.svg">
  <defs
     id="defs4" />
  <sodipodi:namedview
     id="base"
     pagecolor="#ffffff"
     bordercolor="#666666"
     borderopacity="1.0"
     inkscape:pageopacity="0.0"
     inkscape:pageshadow="2"
     inkscape:zoom="0.35"
     inkscape:cx="375"
     inkscape:cy="520"
     inkscape:document-units="px"
     inkscape:current-layer="layer1"
     showgrid="false"
     inkscape:window-width="746"
     inkscape:window-height="389"
     inkscape:window-x="81"
     inkscape:window-y="30"
     inkscape:window-maximized="0" />
  <metadata
     id="metadata7">
    <rdf:RDF>
      <cc:Work
         rdf:about="">
        <dc:format>image/svg+xml</dc:format>
        <dc:type
           rdf:resource="http://purl.org/dc/dcmitype/StillImage" />
        <dc:title></dc:title>
      </cc:Work>
    </rdf:RDF>
  </metadata>
  <g
     inkscape:label="Layer 1"
     inkscape:groupmode="layer"
     id="layer1">
    <path
       style="fill:none;fill-rule:evenodd;stroke:#000000;stroke-width:1px;stroke-linecap:butt;stroke-linejoin:miter;stroke-opacity:1"
       d="m -1151.4286,-393.35208 c 188.57146,120 1237.142886,905.71428 1237.142886,905.71428 L -1002.8571,458.07649 c 0,0 205.71424,34.28571 0,0 -205.7143,-34.28571 -228.5715,-48.57143 -228.5715,-48.57143 l -91.4285,-91.42857 0,0 25.7142,-62.85714 51.4286,-68.57143 c 85.7143,-25.71429 102.8572,-34.28572 102.8572,-34.28572"
       id="path3336"
       inkscape:connector-curvature="0" />
    <path
       style="fill:none;fill-rule:evenodd;stroke:#000000;stroke-width:1px;stroke-linecap:butt;stroke-linejoin:miter;stroke-opacity:1"
       d="M -1122.8571,123.79078 C -1080,9.5050619 -1080,9.5050619 -1080,9.5050619"
       id="path3338"
       inkscape:connector-curvature="0" />
    <path
       style="fill:none;fill-rule:evenodd;stroke:#000000;stroke-width:1px;stroke-linecap:butt;stroke-linejoin:miter;stroke-opacity:1"
       d="m -1080,0.9336333 c 42.8571,-194.2857133 42.8571,-228.5714333 42.8571,-228.5714333"
       id="path3340"
       inkscape:connector-curvature="0" />
    <path
       sodipodi:type="star"
       style="fill:#d3bc5f;fill-opacity:0"
       id="path3342"
       sodipodi:sides="5"
       sodipodi:cx="-1285.7144"
       sodipodi:cy="29.505062"
       sodipodi:r1="219.55428"
       sodipodi:r2="109.77714"
       sodipodi:arg1="-0.31763535"
       sodipodi:arg2="0.31068318"
       inkscape:flatsided="false"
       inkscape:rounded="0"
       inkscape:randomized="0"
       d="m -1077.1429,-39.066365 -104.0499,102.131306 25.1459,143.613599 -129.2859,-67.397 -128.8141,68.29418 24.1468,-143.784944 -104.7574,-101.405472 144.2094,-21.46698 64.0706,-130.966214 64.9794,130.517623 z"
       inkscape:transform-center-x="0.23583806"
       inkscape:transform-center-y="-20.741146" />
    <path
       sodipodi:type="star"
       style="fill:#d3bc5f;fill-opacity:0"
       id="path3344"
       sodipodi:sides="5"
       sodipodi:cx="-1165.7144"
       sodipodi:cy="160.93362"
       sodipodi:r1="86.755577"
       sodipodi:r2="43.377789"
       sodipodi:arg1="-0.30092023"
       sodipodi:arg2="0.3273983"
       inkscape:flatsided="false"
       inkscape:rounded="0"
       inkscape:randomized="0"
       d="m -1082.8572,135.21934 -41.7835,39.66374 8.9863,56.90622 -50.6342,-27.48169 -51.3441,26.13151 10.4898,-56.64835 -40.7188,-40.75606 57.1173,-7.52892 26.1786,-51.32014 24.8106,51.99523 z"
       inkscape:transform-center-x="-0.35491413"
       inkscape:transform-center-y="-7.9461513" />
    <path
       sodipodi:type="star"
       style="fill:#d3bc5f;fill-opacity:0"
       id="path3346"
       sodipodi:sides="5"
       sodipodi:cx="-1137.1429"
       sodipodi:cy="149.50507"
       sodipodi:r1="11.428571"
       sodipodi:r2="5.7142859"
       sodipodi:arg1="0"
       sodipodi:arg2="0.62831853"
       inkscape:flatsided="false"
       inkscape:rounded="0"
       inkscape:randomized="0"
       d="m -1125.7144,149.50507 -6.8056,3.35877 -1.0913,7.51044 -5.2975,-5.43461 -7.4801,1.28294 3.5317,-6.71754 -3.5317,-6.71755 7.4801,1.28294 5.2975,-5.43461 1.0913,7.51044 z"
       inkscape:transform-center-x="-1.0913315" />
    <path
       sodipodi:type="star"
       style="fill:#d3bc5f;fill-opacity:0"
       id="path3348"
       sodipodi:sides="5"
       sodipodi:cx="-1157.1429"
       sodipodi:cy="126.64792"
       sodipodi:r1="45.175395"
       sodipodi:r2="11.780302"
       sodipodi:arg1="2.536048"
       sodipodi:arg2="3.1643665"
       inkscape:flatsided="false"
       inkscape:rounded="0"
       inkscape:randomized="0"
       d="m -1194.2858,152.3622 25.3656,-25.98254 -24.1563,-27.110547 32.5493,16.095077 18.319,-31.35159 -5.2491,35.92985 35.478,7.7342 -35.7933,6.11079 3.6076,36.13159 -16.8724,-32.15318 z"
       inkscape:transform-center-x="-0.50327649"
       inkscape:transform-center-y="-1.7658114" />
    <path
       sodipodi:type="star"
       style="fill:#d3bc5f;fill-opacity:0"
       id="path3350"
       sodipodi:sides="5"
       sodipodi:cx="-957.14288"
       sodipodi:cy="15.219348"
       sodipodi:r1="588.07886"
       sodipodi:r2="153.35216"
       sodipodi:arg1="-0.43105046"
       sodipodi:arg2="0.19726807"
       inkscape:flatsided="false"
       inkscape:rounded="0"
       inkscape:randomized="0"
       d="m -422.85716,-230.49494 -383.90773,275.769949 248.41355,402.150361 -380.90682,-279.90034 -305.70374,360.52662 148.4944,-448.757875 -437.3488,-179.332665 472.6813,2.552729 35.4073,-471.360299 143.63881,450.33555 z"
       inkscape:transform-center-x="21.193871"
       inkscape:transform-center-y="-35.616752" />
    <path
       sodipodi:type="star"
       style="fill:#d3bc5f;fill-opacity:0"
       id="path3352"
       sodipodi:sides="5"
       sodipodi:cx="-360"
       sodipodi:cy="-290.49493"
       sodipodi:r1="2607.3694"
       sodipodi:r2="679.91852"
       sodipodi:arg1="-0.16622956"
       sodipodi:arg2="0.46208897"
       inkscape:flatsided="false"
       inkscape:rounded="0"
       inkscape:randomized="0"
       d="M 2211.4285,-721.92348 248.6108,12.625635 844.92804,2021.7601 -460.21371,381.99774 -2186.742,1569.9858 -1030.5463,-177.99217 -2693.9167,-1452.9097 -674.20668,-893.45708 24.302171,-2869.3875 116.35587,-775.6488 Z"
       inkscape:transform-center-x="-118.7559"
       inkscape:transform-center-y="-133.31876" />
  </g>
</svg>
